# xmcd CD database file
#
# Track frame offsets:
#	225
#	13009
#	28486
#	45674
#	61666
#	79326
#	92589
#	105061
#	119682
#	136242
#	147907
#	159244
#	173310
#	189573
#
# Disc length: 2719 seconds
#
# Revision: 1
# Processed by: cddbd v1.5.2PL0 Copyright (c) Steve Scherf et al.
# Submitted via: CDex 1.70beta2
#
DISCID=ac0a9c0e
DTITLE=Die jungen Original Oberkrainer - Die Welt steht auf Volksmusik
DYEAR=2003
DGENRE=Oberkrainer
TTITLE0=Die Welt steht auf Musik
TTITLE1=Schunkel-Walzer
TTITLE2=Hirtenlied
TTITLE3=Schöner Gailtal
TTITLE4=Ich sag danke mein Schatz
TTITLE5=Pfeif doch drauf
TTITLE6=Hubi, unser schönster Mann
TTITLE7=Feuerwehr Polka
TTITLE8=Ein Mutterherz
TTITLE9=Floriansbruder
TTITLE10=Oma-Tanz
TTITLE11=Immer wieder Blasmusik
TTITLE12=Erinnerst Du Dich noch
TTITLE13=Verpasstes Rendezvous
EXTD=YEAR: 2003
EXTT0=
EXTT1=
EXTT2=
EXTT3=
EXTT4=
EXTT5=
EXTT6=
EXTT7=
EXTT8=
EXTT9=
EXTT10=
EXTT11=
EXTT12=
EXTT13=
PLAYORDER=
